<svg width="38" height="28" viewBox="0 0 38 28" fill="none" xmlns="http://www.w3.org/2000/svg">
<path d="M1.167 11.0232C1.65926 10.531 2.32682 10.2546 3.02288 10.2546C3.71893 10.2546 4.38649 10.531 4.87875 11.0232L14.1608 20.3052L32.7195 1.74378C32.9632 1.49989 33.2526 1.30639 33.5711 1.17433C33.8896 1.04228 34.231 0.974243 34.5758 0.974121C34.9206 0.973999 35.262 1.04179 35.5806 1.17362C35.8992 1.30546 36.1887 1.49875 36.4326 1.74247C36.6765 1.98618 36.8699 2.27555 37.002 2.59405C37.1341 2.91255 37.2021 3.25394 37.2022 3.59873C37.2023 3.94351 37.1345 4.28495 37.0027 4.60354C36.8709 4.92213 36.6776 5.21164 36.4339 5.45553L14.1608 27.7287L1.167 14.7349C0.67489 14.2426 0.398438 13.5751 0.398438 12.879C0.398438 12.183 0.67489 11.5154 1.167 11.0232Z" fill="white"/>
</svg>
