<svg width="25" height="28" viewBox="0 0 25 28" fill="none" xmlns="http://www.w3.org/2000/svg">
<path d="M4.625 19.25C2.45019 19.25 0.6875 21.0127 0.6875 23.1875C0.6875 25.3623 2.45019 27.125 4.625 27.125C6.79981 27.125 8.5625 25.3623 8.5625 23.1875C8.5625 21.0127 6.79981 19.25 4.625 19.25ZM4.625 24.5C3.90181 24.5 3.3125 23.9107 3.3125 23.1875C3.3125 22.4643 3.90181 21.875 4.625 21.875C5.34819 21.875 5.9375 22.4643 5.9375 23.1875C5.9375 23.9107 5.34819 24.5 4.625 24.5Z" fill="#262626" fill-opacity="0.3"/>
<path d="M4.625 17.9375C6.79962 17.9375 8.5625 16.1746 8.5625 14C8.5625 11.8254 6.79962 10.0625 4.625 10.0625C2.45038 10.0625 0.6875 11.8254 0.6875 14C0.6875 16.1746 2.45038 17.9375 4.625 17.9375Z" fill="#262626" fill-opacity="0.3"/>
<path d="M4.625 0.875C2.45019 0.875 0.6875 2.63769 0.6875 4.8125C0.6875 6.98731 2.45019 8.75 4.625 8.75C6.79981 8.75 8.5625 6.98731 8.5625 4.8125C8.5625 2.63769 6.79981 0.875 4.625 0.875ZM4.625 6.125C3.90181 6.125 3.3125 5.53569 3.3125 4.8125C3.3125 4.08931 3.90181 3.5 4.625 3.5C5.34819 3.5 5.9375 4.08931 5.9375 4.8125C5.9375 5.53569 5.34819 6.125 4.625 6.125Z" fill="#262626" fill-opacity="0.3"/>
<path d="M24.3125 3.5H11.1875V6.125H24.3125V3.5Z" fill="#262626" fill-opacity="0.3"/>
<path d="M24.3125 12.6875H11.1875V15.3125H24.3125V12.6875Z" fill="#262626" fill-opacity="0.3"/>
<path d="M24.3125 21.875H11.1875V24.5H24.3125V21.875Z" fill="#262626" fill-opacity="0.3"/>
<path d="M4.625 19.25C2.45019 19.25 0.6875 21.0127 0.6875 23.1875C0.6875 25.3623 2.45019 27.125 4.625 27.125C6.79981 27.125 8.5625 25.3623 8.5625 23.1875C8.5625 21.0127 6.79981 19.25 4.625 19.25ZM4.625 24.5C3.90181 24.5 3.3125 23.9107 3.3125 23.1875C3.3125 22.4643 3.90181 21.875 4.625 21.875C5.34819 21.875 5.9375 22.4643 5.9375 23.1875C5.9375 23.9107 5.34819 24.5 4.625 24.5Z" fill="#262626" fill-opacity="0.3"/>
<path d="M4.625 17.9375C6.79962 17.9375 8.5625 16.1746 8.5625 14C8.5625 11.8254 6.79962 10.0625 4.625 10.0625C2.45038 10.0625 0.6875 11.8254 0.6875 14C0.6875 16.1746 2.45038 17.9375 4.625 17.9375Z" fill="#262626" fill-opacity="0.3"/>
<path d="M4.625 0.875C2.45019 0.875 0.6875 2.63769 0.6875 4.8125C0.6875 6.98731 2.45019 8.75 4.625 8.75C6.79981 8.75 8.5625 6.98731 8.5625 4.8125C8.5625 2.63769 6.79981 0.875 4.625 0.875ZM4.625 6.125C3.90181 6.125 3.3125 5.53569 3.3125 4.8125C3.3125 4.08931 3.90181 3.5 4.625 3.5C5.34819 3.5 5.9375 4.08931 5.9375 4.8125C5.9375 5.53569 5.34819 6.125 4.625 6.125Z" fill="#262626" fill-opacity="0.3"/>
<path d="M24.3125 3.5H11.1875V6.125H24.3125V3.5Z" fill="#262626" fill-opacity="0.3"/>
<path d="M24.3125 12.6875H11.1875V15.3125H24.3125V12.6875Z" fill="#262626" fill-opacity="0.3"/>
<path d="M24.3125 21.875H11.1875V24.5H24.3125V21.875Z" fill="#262626" fill-opacity="0.3"/>
</svg>
