<svg width="35" height="32" viewBox="0 0 35 32" fill="none" xmlns="http://www.w3.org/2000/svg">
<path d="M8.75 10.75H26.25M8.75 17.75H17.5M33.25 30L27.4325 27.0911C26.9915 26.8706 26.771 26.7604 26.5398 26.6827C26.3347 26.6137 26.1235 26.5639 25.9091 26.5338C25.6676 26.5 25.421 26.5 24.9281 26.5H7.35C5.38981 26.5 4.40972 26.5 3.66104 26.1185C3.00246 25.783 2.46703 25.2475 2.13148 24.589C1.75 23.8404 1.75 22.8602 1.75 20.9V7.6C1.75 5.63981 1.75 4.65972 2.13148 3.91103C2.46703 3.25246 3.00246 2.71703 3.66104 2.38148C4.40972 2 5.38982 2 7.35 2H27.65C29.6102 2 30.5904 2 31.339 2.38148C31.9975 2.71703 32.533 3.25246 32.8685 3.91103C33.25 4.65972 33.25 5.63982 33.25 7.6V30Z" stroke="#262626" stroke-opacity="0.3" stroke-width="3.5" stroke-linecap="round" stroke-linejoin="round"/>
</svg>
