<svg width="6" height="20" viewBox="0 0 6 20" fill="none" xmlns="http://www.w3.org/2000/svg">
<path d="M5.33203 2.99935C5.33203 1.71602 4.28203 0.666016 2.9987 0.666016C1.71536 0.666015 0.665365 1.71602 0.665365 2.99935C0.665365 4.28268 1.71536 5.33268 2.9987 5.33268C4.28203 5.33268 5.33203 4.28268 5.33203 2.99935ZM5.33203 16.9993C5.33203 15.716 4.28203 14.666 2.9987 14.666C1.71536 14.666 0.665364 15.716 0.665364 16.9993C0.665364 18.2827 1.71536 19.3327 2.9987 19.3327C4.28203 19.3327 5.33203 18.2827 5.33203 16.9993ZM5.33203 9.99935C5.33203 8.71601 4.28203 7.66602 2.9987 7.66602C1.71536 7.66602 0.665364 8.71601 0.665364 9.99935C0.665364 11.2827 1.71536 12.3327 2.9987 12.3327C4.28203 12.3327 5.33203 11.2827 5.33203 9.99935Z" fill="#262626" fill-opacity="0.9"/>
</svg>
