<svg width="205" height="30" viewBox="0 0 205 30" fill="none" xmlns="http://www.w3.org/2000/svg">
<path d="M0.201705 30V0.90909H7.23295V12.5852H18.696V0.90909H25.7131V30H18.696V18.3097H7.23295V30H0.201705ZM30.1236 30V0.90909H50.4077V6.61932H37.1548V12.5852H49.3707V18.3097H37.1548V24.2898H50.4077V30H30.1236ZM54.8111 30V0.90909H61.8423V24.2898H73.9446V30H54.8111ZM77.5845 30V0.90909H89.6016C91.7796 0.90909 93.6593 1.33523 95.2408 2.1875C96.8317 3.0303 98.058 4.20928 98.9197 5.72443C99.7815 7.23011 100.212 8.98201 100.212 10.9801C100.212 12.9877 99.772 14.7443 98.8913 16.25C98.0201 17.7462 96.7749 18.9062 95.1555 19.7301C93.5362 20.554 91.6139 20.9659 89.3885 20.9659H81.9737V15.4261H88.0817C89.1423 15.4261 90.0277 15.2415 90.7379 14.8722C91.4576 14.5028 92.0021 13.9867 92.3714 13.3239C92.7408 12.6515 92.9254 11.8703 92.9254 10.9801C92.9254 10.0805 92.7408 9.30398 92.3714 8.65057C92.0021 7.98769 91.4576 7.47633 90.7379 7.11648C90.0182 6.75663 89.1328 6.5767 88.0817 6.5767H84.6158V30H77.5845ZM103.678 30V0.90909H123.962V6.61932H110.71V12.5852H122.925V18.3097H110.71V24.2898H123.962V30H103.678ZM128.366 30V0.90909H140.383C142.561 0.90909 144.441 1.30208 146.022 2.08807C147.613 2.86458 148.839 3.98201 149.701 5.44034C150.563 6.8892 150.994 8.60795 150.994 10.5966C150.994 12.6136 150.553 14.3277 149.673 15.7386C148.792 17.1402 147.542 18.2102 145.923 18.9489C144.303 19.678 142.386 20.0426 140.17 20.0426H132.57V14.5028H138.863C139.924 14.5028 140.809 14.3655 141.519 14.0909C142.239 13.8068 142.783 13.3807 143.153 12.8125C143.522 12.2348 143.707 11.4962 143.707 10.5966C143.707 9.69697 143.522 8.9536 143.153 8.36648C142.783 7.76989 142.239 7.32481 141.519 7.03125C140.799 6.72822 139.914 6.5767 138.863 6.5767H135.397V30H128.366ZM144.744 16.7045L151.988 30H144.317L137.215 16.7045H144.744ZM154.751 30V25.9943L168.884 6.61932H154.765V0.90909H177.776V4.91477L163.643 24.2898H177.762V30H154.751ZM181.977 30V25.9943L196.111 6.61932H181.991V0.90909H205.003V4.91477L190.869 24.2898H204.989V30H181.977Z" fill="black" fill-opacity="0.9"/>
</svg>
