<svg width="152px" height="64px" viewBox="0 0 152 64" version="1.1" xmlns="http://www.w3.org/2000/svg" xmlns:xlink="http://www.w3.org/1999/xlink">
    <g id="Page-1" stroke="none" stroke-width="1" fill="none" fill-rule="evenodd">
        <g id="Thank-You-Page---Desktop---v1" transform="translate(-250.000000, -70.000000)">
            <g id="Logo" transform="translate(250.000000, 70.000000)">
                <rect id="White" fill="#FFFFFF" fill-rule="nonzero" x="14" y="19" width="126" height="22"></rect>
                <path d="M111.085485,31.9404318 C110.809969,32.0838126 110.626073,32.2662974 110.521195,32.4618167 C110.416187,32.657336 110.363551,32.8919593 110.363551,33.1396171 C110.363551,33.4915519 110.481817,33.7783136 110.70496,34.0259715 C110.927972,34.2605947 111.256124,34.3779063 111.689416,34.3779063 C112.030694,34.3779063 112.332463,34.3127332 112.621368,34.1693523 C112.910142,34.0259715 113.146411,33.8434868 113.343302,33.6218982 C113.540193,33.4003096 113.697706,33.1265825 113.802715,32.8137515 C113.92085,32.5009206 113.973223,32.2011242 113.973223,31.8752587 L113.973223,31.4581507 C113.264546,31.4581507 112.673872,31.4972546 112.214459,31.5884969 C111.728794,31.6667047 111.361264,31.7840163 111.085485,31.9404318" id="a" fill="#27A9E1"></path>
                <path d="M40.7428256,27.1827943 C40.4279309,27.1827943 40.112905,27.2479674 39.8108739,27.365279 C39.5091054,27.4825906 39.2465838,27.67811 38.9971883,27.9388024 C38.7607876,28.1994949 38.5638964,28.5383951 38.4326356,28.9555031 C38.28838,29.372611 38.2227496,29.8679267 38.2227496,30.4414501 C38.2227496,31.6536701 38.4196408,32.5400244 38.8002971,33.1005132 C39.1940794,33.661002 39.8108739,33.9477637 40.6510743,33.9477637 C41.3991295,33.9477637 41.9898031,33.661002 42.4360898,33.074444 C42.8825078,32.5009206 43.1187772,31.6536701 43.1187772,30.5457271 C43.1187772,29.4247495 42.9350121,28.577499 42.5673506,28.0170102 C42.1999516,27.469556 41.5960207,27.1827943 40.7428256,27.1827943" id="o" fill="#27A9E1"></path>
                <path d="M77.0889396,26.6614094 C76.5115233,26.6614094 76.012601,26.8699633 75.632076,27.2870713 C75.2382936,27.7041792 75.0151503,28.264668 74.9362625,28.9424684 L78.939848,28.9424684 C78.9792263,28.1864603 78.8217133,27.6129369 78.4804352,27.2349328 C78.1390259,26.8438941 77.6796131,26.6614094 77.0889396,26.6614094" id="e" fill="#27A9E1"></path>
                <path d="M137.981347,34.8080489 C137.692573,35.3555031 137.298791,35.8247495 136.773748,36.2157882 C136.248705,36.6068269 135.618653,36.9066232 134.896718,37.1151772 C134.161658,37.3237312 133.347841,37.4280081 132.442142,37.4280081 C131.378929,37.4280081 130.407206,37.3106965 129.527627,37.0630387 L129.737775,33.8043829 C130.551461,34.1563177 131.470812,34.3257678 132.494646,34.3257678 C133.006563,34.3257678 133.400345,34.2345255 133.689119,34.0520407 C133.977893,33.869556 134.109154,33.6218982 134.109154,33.2960326 C134.109154,32.9832016 133.991019,32.7355438 133.75475,32.5400244 C133.51848,32.3575397 133.21658,32.1880896 132.84905,32.0577434 C132.48152,31.9143625 132.100864,31.7709817 131.680829,31.6145662 C131.260401,31.4581507 130.879613,31.2365621 130.512083,30.962835 C130.144684,30.6760733 129.855779,30.3241385 129.606383,29.8679267 C129.370114,29.4247495 129.252111,28.8381914 129.252111,28.1212872 C129.252111,27.5216945 129.370114,26.9612057 129.593257,26.4267862 C129.816532,25.8923666 130.170936,25.4231202 130.65647,25.0320815 C131.12914,24.6410428 131.733333,24.3282118 132.468394,24.0935886 C133.203454,23.872 134.069775,23.7546884 135.080484,23.7546884 C135.434888,23.7546884 135.815544,23.7807576 136.222453,23.8198615 C136.629361,23.8589654 137.023143,23.9241385 137.390674,23.9893116 L137.259413,27.1176212 C136.918135,27.0003096 136.550604,26.9090672 136.156822,26.8569287 C135.76304,26.8047902 135.369257,26.778721 134.975475,26.778721 C134.463558,26.778721 134.082902,26.8699633 133.833506,27.0524481 C133.584111,27.2349328 133.465976,27.4825906 133.465976,27.782387 C133.465976,28.0691487 133.584111,28.2907373 133.833506,28.473222 C134.082902,28.6426721 134.384801,28.8121222 134.752332,28.9685377 C135.119862,29.1249532 135.513644,29.2944033 135.933679,29.4638534 C136.353713,29.6333035 136.747496,29.8679267 137.115026,30.1546884 C137.482556,30.4414501 137.784456,30.7933849 138.033851,31.2495967 C138.283247,31.6927739 138.401382,32.2662974 138.401382,32.970167 C138.401382,33.6349328 138.256995,34.2475601 137.981347,34.8080489 Z M128.057506,27.7041792 C126.941789,27.4565214 126.101851,27.6520407 125.53743,28.2907373 C124.972877,28.9294338 124.684235,30.0764807 124.684235,31.7318778 L124.684235,37.1282118 L120.680781,37.1282118 L120.680781,24.0544847 L124.421713,24.0544847 C124.421713,24.3412464 124.408456,24.6931813 124.382204,25.1233238 C124.356083,25.5534664 124.303579,25.9705743 124.237948,26.3746477 L124.290453,26.3746477 C124.644725,25.5795356 125.13039,24.9408391 125.773699,24.4324888 C126.403751,23.9241385 127.230563,23.6895153 128.241402,23.7416538 L128.057506,27.7041792 Z M114.327758,37.1412464 C114.327758,36.8284155 114.327758,36.5025499 114.340753,36.1636497 C114.35401,35.8247495 114.380263,35.4988839 114.432636,35.1599837 L114.406383,35.1599837 C114.091489,35.8508187 113.566446,36.3982729 112.844511,36.8023462 C112.122577,37.2194542 111.295634,37.4149735 110.376808,37.4149735 C109.746625,37.4149735 109.182204,37.3106965 108.709796,37.1151772 C108.237126,36.9196578 107.830349,36.6328961 107.515192,36.2809613 C107.200297,35.9290265 106.95077,35.5249532 106.780263,35.0557067 C106.609623,34.5864603 106.530736,34.0911446 106.530736,33.5436904 C106.530736,32.7225092 106.714632,32.0186395 107.082031,31.4190468 C107.449561,30.8324888 107.96161,30.3502077 108.617914,29.9852383 C109.274218,29.6202688 110.048656,29.3465418 110.967482,29.164057 C111.87305,28.9946069 112.870763,28.9033646 113.946971,28.9033646 L113.946971,28.3819796 C113.946971,27.8345255 113.776332,27.4304521 113.435185,27.1697597 C113.093775,26.9090672 112.476981,26.778721 111.597534,26.778721 C111.019855,26.778721 110.389934,26.8569287 109.746625,27.0263788 C109.090321,27.1958289 108.499648,27.4043829 107.974604,27.6390061 L107.278922,24.5106965 C107.974604,24.2630387 108.762169,24.0675193 109.654874,23.9241385 C110.547447,23.7807576 111.426895,23.7025499 112.293216,23.7025499 C113.408933,23.7025499 114.327758,23.8068269 115.062687,24.0023462 C115.797879,24.2109002 116.388553,24.4976619 116.821713,24.9017352 C117.268,25.2927739 117.5699,25.775055 117.753534,26.3355438 C117.924304,26.8960326 118.016055,27.5347291 118.016055,28.2516334 L118.016055,34.0259715 C118.016055,34.4952179 118.029313,35.0035682 118.042307,35.5510224 C118.055565,36.0984766 118.081686,36.6198615 118.121195,37.1282118 L114.327758,37.1412464 Z M103.879399,37.3237312 C103.354356,37.3889043 102.842439,37.4280081 102.3699,37.4280081 C101.608456,37.4280081 100.978404,37.362835 100.466618,37.2194542 C99.9547012,37.0760733 99.5345354,36.8414501 99.2196408,36.5155845 C98.9046149,36.1897189 98.6813402,35.7595764 98.5500794,35.2251568 C98.4188187,34.6907373 98.3531883,34.0129369 98.3531883,33.2047902 L98.3531883,27.1176212 L96.3712815,27.1176212 L96.3712815,24.0414501 L98.3531883,24.0414501 L98.3531883,20.170167 L102.409278,19.0882933 L102.409278,24.0414501 L105.24438,24.0414501 L105.24438,27.1176212 L102.409278,27.1176212 L102.409278,32.279332 C102.409278,32.9440978 102.501161,33.4133442 102.698052,33.6740367 C102.894943,33.9347291 103.249216,34.0650754 103.761264,34.0650754 C104.01066,34.0650754 104.246929,34.0520407 104.470073,34.0129369 C104.693085,33.973833 104.916228,33.9347291 105.152497,33.8825906 L105.388898,37.0109002 C104.903233,37.1542811 104.417568,37.2455234 103.879399,37.3237312 Z M95.504829,33.8565214 C95.1636822,34.5864603 94.677886,35.2121222 94.0479655,35.7465418 C93.4179136,36.2809613 92.6697271,36.6980692 91.8034059,36.9978656 C90.9369534,37.2976619 89.9788808,37.4410428 88.9156684,37.4410428 C88.0624732,37.4410428 87.3010294,37.4019389 86.6053472,37.3237312 C85.9097962,37.2455234 85.266487,37.1282118 84.6496926,36.9717963 L85.043475,33.074444 C85.6208912,33.3221018 86.250943,33.5176212 86.907247,33.6479674 C87.5768083,33.7913483 88.2724905,33.8565214 89.020677,33.8565214 C89.6899758,33.8565214 90.2676546,33.7131405 90.7400622,33.4263788 C91.2127323,33.1396171 91.4619965,32.6703707 91.4619965,32.0186395 C91.4619965,31.5102892 91.2914888,31.1192505 90.9369534,30.8324888 C90.5825492,30.5457271 90.1363938,30.2980692 89.6113506,30.0764807 C89.0863074,29.8548921 88.5086287,29.6333035 87.8917029,29.3986802 C87.2749085,29.1770916 86.697361,28.8642607 86.1723178,28.473222 C85.6472746,28.0821833 85.2008566,27.5868676 84.8465838,26.9872749 C84.4921796,26.3876823 84.3215406,25.5795356 84.3215406,24.5758697 C84.3215406,23.7286191 84.4789223,22.972611 84.7940794,22.2948106 C85.1091054,21.6170102 85.5685181,21.0304521 86.1723178,20.5481711 C86.7759862,20.0528554 87.5111779,19.6748513 88.3906252,19.4141589 C89.2699413,19.1534664 90.2676546,19.0231202 91.3963661,19.0231202 C91.8557789,19.0231202 92.3808221,19.0491894 92.984753,19.1013279 C93.5885527,19.1534664 94.139848,19.2447088 94.6516339,19.3620204 L94.2841036,22.9465418 C93.2733955,22.5946069 92.2495613,22.4251568 91.2127323,22.4251568 C90.3595371,22.4251568 89.7426114,22.5815723 89.348829,22.8813686 C88.9024111,23.2333035 88.7055199,23.7025499 88.7581554,24.3021426 C88.7844076,24.6410428 88.9680415,24.9538737 89.2438204,25.1624277 C89.6113506,25.462224 90.0837582,25.7359511 90.6481796,25.983609 C91.1864801,26.2182322 91.7638964,26.46589 92.3940794,26.7135479 C93.0241313,26.9612057 93.6015475,27.2740367 94.139848,27.67811 C94.677886,28.0691487 95.124304,28.577499 95.4918342,29.1770916 C95.8592332,29.7766843 96.0298722,30.5457271 96.0298722,31.48422 C96.0168774,32.3445051 95.8462383,33.1265825 95.504829,33.8565214 Z M82.9037927,30.6760733 C82.8776718,30.962835 82.8514197,31.275666 82.8120415,31.6145662 L74.9362625,31.6145662 C74.9495199,32.4748513 75.2251675,33.1396171 75.7633368,33.6218982 C76.3013748,34.0911446 77.115323,34.3388024 78.2046563,34.3388024 C78.8479655,34.3388024 79.4910121,34.2736293 80.1473161,34.1432831 C80.80362,34.0129369 81.4469292,33.8043829 82.0901071,33.5306558 L82.4838895,36.5546884 C81.7224456,36.8544847 80.9087599,37.0760733 80.0555648,37.2194542 C79.2023696,37.362835 78.3623005,37.4410428 77.5483523,37.4410428 C75.3825492,37.4410428 73.7287945,36.9066232 72.5868256,35.8377841 C71.4317306,34.768945 70.8540518,33.074444 70.8540518,30.7542811 C70.8540518,29.7506151 70.9853126,28.8251568 71.2609603,27.9648717 C71.5367392,27.1045866 71.9436477,26.361613 72.4816857,25.7359511 C73.0198549,25.1102892 73.689285,24.6280081 74.4768497,24.2760733 C75.2644145,23.9241385 76.170114,23.7546884 77.2072055,23.7546884 C78.2046563,23.7546884 79.0578515,23.9111039 79.7797858,24.2239348 C80.5017202,24.5367658 81.1055199,24.9669084 81.57819,25.5143625 C82.0505976,26.0618167 82.3920069,26.7005132 82.6151503,27.4304521 C82.8381623,28.1734257 82.9433022,28.9685377 82.9433022,29.8288228 C82.9564283,30.1025499 82.9300449,30.376277 82.9037927,30.6760733 Z M68.8851399,37.1412464 L64.8291813,37.1412464 L64.8291813,28.9294338 C64.8291813,28.368945 64.7504249,27.9257678 64.5799171,27.5999022 C64.4092781,27.2740367 64.107247,27.1176212 63.6478342,27.1176212 C63.3460656,27.1176212 63.0440345,27.2088635 62.742266,27.3913483 C62.4403661,27.573833 62.1647185,27.8345255 61.915323,28.1734257 C61.6657962,28.5123259 61.468905,28.9033646 61.3246494,29.3595764 C61.1802625,29.8157882 61.101506,30.3111039 61.101506,30.8324888 L61.101506,37.1412464 L57.0980518,37.1412464 L57.0980518,28.9033646 C57.0980518,28.368945 57.0191641,27.9388024 56.8617824,27.6129369 C56.7042694,27.2740367 56.3761174,27.1176212 55.9034473,27.1176212 C55.5885527,27.1176212 55.2604007,27.2088635 54.9453748,27.4043829 C54.6303489,27.5999022 54.3415751,27.8605947 54.1053057,28.1994949 C53.868905,28.5383951 53.6720138,28.9294338 53.5146321,29.372611 C53.3571192,29.8157882 53.2914888,30.3111039 53.2914888,30.8324888 L53.2914888,37.1412464 L49.2880345,37.1412464 L49.2880345,24.0544847 L53.0289672,24.0544847 C53.0289672,24.3021426 53.0157098,24.6149735 52.9895889,25.0060122 C52.9633368,25.3970509 52.9239585,25.7620204 52.871323,26.1139552 L52.8977064,26.1139552 C53.3046149,25.3840163 53.8821623,24.8104929 54.6172228,24.3933849 C55.3522832,23.976277 56.1923523,23.767723 57.1372988,23.767723 C58.1481382,23.767723 58.9619551,23.9893116 59.5526287,24.4324888 C60.1433022,24.875666 60.5500794,25.4361548 60.7600967,26.1139552 C61.1146321,25.4752587 61.6396753,24.9147699 62.3484836,24.458558 C63.0571606,24.0023462 63.9103558,23.767723 64.9080691,23.767723 C66.1942936,23.767723 67.1787496,24.1326925 67.861437,24.8626314 C68.5439931,25.5925703 68.8851399,26.7005132 68.8851399,28.1994949 L68.8851399,37.1412464 Z M46.7940794,33.2178248 C46.439544,34.0911446 45.9540104,34.8471527 45.3369534,35.4728147 C44.7201589,36.0984766 43.9850984,36.5807576 43.1319033,36.9196578 C42.2787081,37.258558 41.3598826,37.4280081 40.3754266,37.4280081 C39.4170915,37.4280081 38.5509016,37.3106965 37.7763316,37.0630387 C37.0018929,36.8153809 36.3324629,36.4373768 35.7681727,35.9029572 C35.2167461,35.3815723 34.7837168,34.7037719 34.4818169,33.869556 C34.1797858,33.0483747 34.035399,32.0577434 34.035399,30.8976619 C34.035399,29.8288228 34.2061693,28.8512261 34.5474473,27.9779063 C34.8885941,27.1045866 35.3743903,26.3485784 36.0043109,25.7229165 C36.634494,25.0972546 37.3695544,24.6149735 38.2227496,24.2760733 C39.0759447,23.9371731 39.9947703,23.767723 41.0053472,23.767723 C43.0267634,23.767723 44.575772,24.3151772 45.6783627,25.3970509 C46.767696,26.4919593 47.3191226,28.1212872 47.3191226,30.3241385 C47.3191226,31.3669084 47.1484836,32.3314705 46.7940794,33.2178248 Z M31.9352263,37.1412464 L27.8005112,37.1412464 L27.8005112,29.7375804 L21.2505976,29.7375804 L21.2505976,37.1412464 L17.1158826,37.1412464 L17.1158826,19.3620204 L21.2505976,19.3620204 L21.2505976,26.1791283 L27.8005112,26.1791283 L27.8005112,19.3620204 L31.9352263,19.3620204 L31.9352263,37.1412464 Z M144.242487,12.0887006 C140.488428,10.7200652 136.261831,10.6548921 132.310881,10.3159919 C127.873872,9.93798778 123.227109,9.58605295 118.80362,9.2210835 C109.575986,8.43900611 100.440366,7.8133442 91.2127323,7.01823218 C72.8624732,5.44104277 54.5120829,3.83778411 36.1619551,2.29969857 C31.3971883,1.89562525 26.6322902,1.47851731 21.8676546,1.10051324 C18.0742176,0.722509165 11.2222729,0.00560488798 10.2246908,0.00560488798 C4.26545078,0.0316741344 1.28583074,3.91599185 0.314500864,8.80397556 C-0.0661554404,10.7200652 -0.0792815199,12.6882933 0.157119171,14.6304521 C1.01031434,21.6821833 1.7322487,28.7730183 2.84796546,35.772611 C3.66165112,40.8300448 5.22365458,45.8223055 9.81778238,48.7029572 C14.2414024,51.4662974 23.5345354,50.8536701 29.9401934,50.8667047 C37.3695544,50.8667047 44.8119102,50.8667047 52.2414024,50.8797393 C67.4807807,50.8797393 82.7201589,50.8797393 97.9594059,50.8536701 C99.9939482,50.8536701 105.61191,50.8797393 105.61191,50.8797393 C105.61191,50.8797393 106.556988,51.583609 107.410183,52.3917556 C109.60237,54.4512261 111.951938,56.3412464 114.459019,57.9966436 C118.86925,60.8903299 125.392912,64.4487821 130.866618,63.9534664 C126.482377,60.8121222 124.014674,56.2891079 123.634149,50.957947 C131.392055,50.7884969 142.811744,51.9225092 147.707772,46.0178248 C152.144387,40.6605947 151.671848,32.2271935 151.894991,25.7098819 C152.118135,19.8182322 150.227979,14.2524481 144.242487,12.0887006 Z" id="Shape" fill="#27A9E1"></path>
            </g>
        </g>
    </g>
</svg>